<svg width="275" height="229" viewBox="0 0 275 229" fill="none" xmlns="http://www.w3.org/2000/svg">
<path d="M0 33.649H275V202C275 216.912 262.912 229 248 229H27C12.0883 229 0 216.912 0 202V33.649Z" fill="#FEFDFB"/>
<path d="M0 20C0 8.9543 8.9543 0 20 0H255C266.046 0 275 8.9543 275 20V33.649H0V20Z" fill="#C1A58D"/>
<path d="M112.686 24V21.68L112.626 21.3V17.42C112.626 16.5267 112.373 15.84 111.866 15.36C111.373 14.88 110.633 14.64 109.646 14.64C108.966 14.64 108.32 14.7533 107.706 14.98C107.093 15.2067 106.573 15.5067 106.146 15.88L105.506 14.82C106.04 14.3667 106.68 14.02 107.426 13.78C108.173 13.5267 108.96 13.4 109.786 13.4C111.146 13.4 112.193 13.74 112.926 14.42C113.673 15.0867 114.046 16.1067 114.046 17.48V24H112.686ZM109.066 24.1C108.28 24.1 107.593 23.9733 107.006 23.72C106.433 23.4533 105.993 23.0933 105.686 22.64C105.38 22.1733 105.226 21.64 105.226 21.04C105.226 20.4933 105.353 20 105.606 19.56C105.873 19.1067 106.3 18.7467 106.886 18.48C107.486 18.2 108.286 18.06 109.286 18.06H112.906V19.12H109.326C108.313 19.12 107.606 19.3 107.206 19.66C106.82 20.02 106.626 20.4667 106.626 21C106.626 21.6 106.86 22.08 107.326 22.44C107.793 22.8 108.446 22.98 109.286 22.98C110.086 22.98 110.773 22.8 111.346 22.44C111.933 22.0667 112.36 21.5333 112.626 20.84L112.946 21.82C112.68 22.5133 112.213 23.0667 111.546 23.48C110.893 23.8933 110.066 24.1 109.066 24.1ZM117.827 24V13.5H122.467C123.653 13.5 124.587 13.7267 125.267 14.18C125.96 14.6333 126.307 15.3 126.307 16.18C126.307 17.0333 125.98 17.6933 125.327 18.16C124.673 18.6133 123.813 18.84 122.747 18.84L123.027 18.42C124.28 18.42 125.2 18.6533 125.787 19.12C126.373 19.5867 126.667 20.26 126.667 21.14C126.667 22.0467 126.333 22.7533 125.667 23.26C125.013 23.7533 123.993 24 122.607 24H117.827ZM119.207 22.88H122.547C123.44 22.88 124.113 22.74 124.567 22.46C125.033 22.1667 125.267 21.7 125.267 21.06C125.267 20.42 125.06 19.9533 124.647 19.66C124.233 19.3667 123.58 19.22 122.687 19.22H119.207V22.88ZM119.207 18.16H122.367C123.18 18.16 123.8 18.0067 124.227 17.7C124.667 17.3933 124.887 16.9467 124.887 16.36C124.887 15.7733 124.667 15.3333 124.227 15.04C123.8 14.7467 123.18 14.6 122.367 14.6H119.207V18.16ZM129.995 24V13.5H137.435V14.74H131.055L131.415 14.38V24H129.995ZM139.667 27.98C139.173 27.98 138.7 27.9 138.247 27.74C137.807 27.58 137.427 27.34 137.107 27.02L137.767 25.96C138.033 26.2133 138.32 26.4067 138.627 26.54C138.947 26.6867 139.3 26.76 139.687 26.76C140.153 26.76 140.553 26.6267 140.887 26.36C141.233 26.1067 141.56 25.6533 141.867 25L142.547 23.46L142.707 23.24L147.027 13.5H148.427L143.167 25.26C142.873 25.94 142.547 26.48 142.187 26.88C141.84 27.28 141.46 27.56 141.047 27.72C140.633 27.8933 140.173 27.98 139.667 27.98ZM142.467 24.3L137.627 13.5H139.107L143.387 23.14L142.467 24.3ZM154.746 24.1C153.706 24.1 152.773 23.8733 151.946 23.42C151.133 22.9533 150.493 22.32 150.026 21.52C149.56 20.7067 149.326 19.78 149.326 18.74C149.326 17.6867 149.56 16.76 150.026 15.96C150.493 15.16 151.133 14.5333 151.946 14.08C152.773 13.6267 153.706 13.4 154.746 13.4C155.64 13.4 156.446 13.5733 157.166 13.92C157.886 14.2667 158.453 14.7867 158.866 15.48L157.806 16.2C157.446 15.6667 157 15.2733 156.466 15.02C155.933 14.7667 155.353 14.64 154.726 14.64C153.98 14.64 153.306 14.8133 152.706 15.16C152.106 15.4933 151.633 15.9667 151.286 16.58C150.94 17.1933 150.766 17.9133 150.766 18.74C150.766 19.5667 150.94 20.2867 151.286 20.9C151.633 21.5133 152.106 21.9933 152.706 22.34C153.306 22.6733 153.98 22.84 154.726 22.84C155.353 22.84 155.933 22.7133 156.466 22.46C157 22.2067 157.446 21.82 157.806 21.3L158.866 22.02C158.453 22.7 157.886 23.22 157.166 23.58C156.446 23.9267 155.64 24.1 154.746 24.1ZM163.42 24V14.36L163.78 14.74H159.44V13.5H168.82V14.74H164.48L164.84 14.36V24H163.42Z" fill="#FCF7F3"/>
<path d="M212.656 55V44.44L213.344 45.192H210.128V43.8H214.24V55H212.656Z" fill="#545454"/>
<path d="M244.592 55V53.912L249.152 49.512C249.557 49.128 249.856 48.792 250.048 48.504C250.251 48.2053 250.384 47.9333 250.448 47.688C250.523 47.432 250.56 47.1867 250.56 46.952C250.56 46.376 250.357 45.9227 249.952 45.592C249.547 45.2613 248.955 45.096 248.176 45.096C247.579 45.096 247.04 45.1973 246.56 45.4C246.08 45.592 245.664 45.896 245.312 46.312L244.224 45.368C244.651 44.824 245.221 44.408 245.936 44.12C246.661 43.8213 247.456 43.672 248.32 43.672C249.099 43.672 249.776 43.8 250.352 44.056C250.928 44.3013 251.371 44.6587 251.68 45.128C252 45.5973 252.16 46.152 252.16 46.792C252.16 47.1547 252.112 47.512 252.016 47.864C251.92 48.216 251.739 48.5893 251.472 48.984C251.205 49.3787 250.821 49.8213 250.32 50.312L246.256 54.232L245.872 53.608H252.64V55H244.592Z" fill="#545454"/>
<path d="M30.1921 88.128C29.4027 88.128 28.6347 88.0053 27.8881 87.76C27.1521 87.5147 26.5494 87.184 26.0801 86.768L26.8161 85.504C27.1894 85.856 27.6747 86.144 28.2721 86.368C28.8694 86.592 29.5094 86.704 30.1921 86.704C31.0241 86.704 31.6694 86.528 32.1281 86.176C32.5974 85.8133 32.8321 85.328 32.8321 84.72C32.8321 84.1333 32.6081 83.664 32.1601 83.312C31.7227 82.9493 31.0241 82.768 30.0641 82.768H29.1681V81.648L32.4961 77.552L32.7201 78.192H26.5921V76.8H33.9841V77.888L30.6721 81.968L29.8401 81.472H30.3681C31.7227 81.472 32.7361 81.776 33.4081 82.384C34.0907 82.992 34.4321 83.7653 34.4321 84.704C34.4321 85.3333 34.2774 85.9093 33.9681 86.432C33.6587 86.9547 33.1894 87.3707 32.5601 87.68C31.9414 87.9787 31.1521 88.128 30.1921 88.128Z" fill="#545454"/>
<path d="M62.6079 85.248V84.128L68.3359 76.8H70.0639L64.3839 84.128L63.5679 83.872H72.5119V85.248H62.6079ZM68.8319 88V85.248L68.8799 83.872V81.44H70.3839V88H68.8319Z" fill="#545454"/>
<path fill-rule="evenodd" clip-rule="evenodd" d="M174 138.384C172.132 135.519 168.875 131 163.424 131C157.918 131 155 135.863 155 140.292C155 146.12 158.07 151.128 161.938 155.241C165.812 159.36 170.569 162.639 174 165C177.431 162.639 182.188 159.36 186.062 155.241C189.93 151.128 193 146.12 193 140.292C193 135.863 190.082 131 184.576 131C179.125 131 175.868 135.519 174 138.384Z" fill="#DEB2A9"/>
<path d="M103.384 88.128C102.595 88.128 101.827 88.0053 101.08 87.76C100.344 87.5147 99.7413 87.184 99.272 86.768L100.008 85.504C100.381 85.856 100.867 86.144 101.464 86.368C102.061 86.592 102.696 86.704 103.368 86.704C104.221 86.704 104.877 86.5227 105.336 86.16C105.795 85.7973 106.024 85.312 106.024 84.704C106.024 84.288 105.923 83.9253 105.72 83.616C105.517 83.3067 105.165 83.072 104.664 82.912C104.173 82.7413 103.496 82.656 102.632 82.656H100.088L100.68 76.8H107V78.192H101.272L102.104 77.408L101.64 82.032L100.808 81.264H102.968C104.088 81.264 104.989 81.408 105.672 81.696C106.355 81.984 106.851 82.384 107.16 82.896C107.469 83.3973 107.624 83.9787 107.624 84.64C107.624 85.28 107.469 85.8667 107.16 86.4C106.851 86.9227 106.381 87.344 105.752 87.664C105.133 87.9733 104.344 88.128 103.384 88.128Z" fill="#545454"/>
<path d="M140.472 88.128C139.48 88.128 138.632 87.9093 137.928 87.472C137.224 87.0347 136.685 86.4053 136.312 85.584C135.949 84.752 135.768 83.7387 135.768 82.544C135.768 81.2747 135.992 80.2027 136.44 79.328C136.888 78.4533 137.512 77.792 138.312 77.344C139.112 76.896 140.029 76.672 141.064 76.672C141.597 76.672 142.104 76.7253 142.584 76.832C143.075 76.9387 143.496 77.104 143.848 77.328L143.24 78.576C142.952 78.3733 142.621 78.2347 142.248 78.16C141.885 78.0853 141.501 78.048 141.096 78.048C139.955 78.048 139.048 78.4053 138.376 79.12C137.704 79.824 137.368 80.8747 137.368 82.272C137.368 82.496 137.379 82.7627 137.4 83.072C137.421 83.3813 137.475 83.6853 137.56 83.984L137.016 83.44C137.176 82.9493 137.427 82.5387 137.768 82.208C138.12 81.8667 138.536 81.616 139.016 81.456C139.507 81.2853 140.035 81.2 140.6 81.2C141.347 81.2 142.008 81.3387 142.584 81.616C143.16 81.8933 143.613 82.288 143.944 82.8C144.275 83.3013 144.44 83.8987 144.44 84.592C144.44 85.3067 144.264 85.9307 143.912 86.464C143.56 86.9973 143.085 87.408 142.488 87.696C141.891 87.984 141.219 88.128 140.472 88.128ZM140.408 86.832C140.899 86.832 141.325 86.7413 141.688 86.56C142.061 86.3787 142.355 86.128 142.568 85.808C142.781 85.4773 142.888 85.0933 142.888 84.656C142.888 83.9947 142.659 83.472 142.2 83.088C141.741 82.6933 141.117 82.496 140.328 82.496C139.816 82.496 139.368 82.592 138.984 82.784C138.6 82.976 138.296 83.2373 138.072 83.568C137.859 83.888 137.752 84.256 137.752 84.672C137.752 85.056 137.853 85.4133 138.056 85.744C138.259 86.064 138.557 86.3253 138.952 86.528C139.347 86.7307 139.832 86.832 140.408 86.832Z" fill="#545454"/>
<path d="M173.704 88L178.456 77.472L178.872 78.192H172.216L173.016 77.408V80.192H171.48V76.8H179.928V77.888L175.4 88H173.704Z" fill="#545454"/>
<path d="M212.136 88.128C211.229 88.128 210.445 87.9947 209.784 87.728C209.123 87.4613 208.611 87.0827 208.248 86.592C207.885 86.0907 207.704 85.504 207.704 84.832C207.704 84.1707 207.875 83.6107 208.216 83.152C208.568 82.6827 209.075 82.3307 209.736 82.096C210.397 81.8507 211.197 81.728 212.136 81.728C213.075 81.728 213.875 81.8507 214.536 82.096C215.208 82.3307 215.72 82.6827 216.072 83.152C216.424 83.6213 216.6 84.1813 216.6 84.832C216.6 85.504 216.419 86.0907 216.056 86.592C215.693 87.0827 215.176 87.4613 214.504 87.728C213.832 87.9947 213.043 88.128 212.136 88.128ZM212.136 86.832C213.032 86.832 213.731 86.6507 214.232 86.288C214.744 85.9147 215 85.4133 215 84.784C215 84.1653 214.744 83.68 214.232 83.328C213.731 82.9653 213.032 82.784 212.136 82.784C211.251 82.784 210.557 82.9653 210.056 83.328C209.555 83.68 209.304 84.1653 209.304 84.784C209.304 85.4133 209.555 85.9147 210.056 86.288C210.557 86.6507 211.251 86.832 212.136 86.832ZM212.136 81.568C212.915 81.568 213.523 81.408 213.96 81.088C214.408 80.768 214.632 80.3307 214.632 79.776C214.632 79.2107 214.403 78.768 213.944 78.448C213.485 78.128 212.883 77.968 212.136 77.968C211.389 77.968 210.792 78.128 210.344 78.448C209.907 78.768 209.688 79.2107 209.688 79.776C209.688 80.3307 209.901 80.768 210.328 81.088C210.765 81.408 211.368 81.568 212.136 81.568ZM212.136 82.592C211.283 82.592 210.557 82.48 209.96 82.256C209.363 82.0213 208.904 81.6907 208.584 81.264C208.264 80.8267 208.104 80.3093 208.104 79.712C208.104 79.0827 208.269 78.544 208.6 78.096C208.941 77.6373 209.416 77.2853 210.024 77.04C210.632 76.7947 211.336 76.672 212.136 76.672C212.947 76.672 213.656 76.7947 214.264 77.04C214.872 77.2853 215.347 77.6373 215.688 78.096C216.029 78.544 216.2 79.0827 216.2 79.712C216.2 80.3093 216.04 80.8267 215.72 81.264C215.4 81.6907 214.936 82.0213 214.328 82.256C213.72 82.48 212.989 82.592 212.136 82.592Z" fill="#545454"/>
<path d="M252.933 88.128C252.41 88.128 251.904 88.0747 251.413 87.968C250.933 87.8613 250.512 87.696 250.149 87.472L250.757 86.224C251.056 86.416 251.386 86.5547 251.749 86.64C252.122 86.7147 252.512 86.752 252.917 86.752C254.048 86.752 254.949 86.4 255.621 85.696C256.293 84.9813 256.629 83.9253 256.629 82.528C256.629 82.304 256.618 82.0373 256.597 81.728C256.576 81.4187 256.528 81.1147 256.453 80.816L256.981 81.36C256.832 81.8507 256.581 82.2667 256.229 82.608C255.888 82.9387 255.472 83.1893 254.981 83.36C254.501 83.52 253.973 83.6 253.397 83.6C252.661 83.6 252.005 83.4613 251.429 83.184C250.853 82.9067 250.4 82.5173 250.069 82.016C249.738 81.504 249.573 80.9013 249.573 80.208C249.573 79.4827 249.744 78.8587 250.085 78.336C250.437 77.8027 250.912 77.392 251.509 77.104C252.117 76.816 252.789 76.672 253.525 76.672C254.538 76.672 255.392 76.8907 256.085 77.328C256.789 77.7653 257.322 78.4 257.685 79.232C258.048 80.0533 258.229 81.0613 258.229 82.256C258.229 83.5253 258.005 84.5973 257.557 85.472C257.109 86.3467 256.49 87.008 255.701 87.456C254.912 87.904 253.989 88.128 252.933 88.128ZM253.669 82.304C254.181 82.304 254.629 82.208 255.013 82.016C255.408 81.824 255.712 81.5627 255.925 81.232C256.149 80.9013 256.261 80.5333 256.261 80.128C256.261 79.7333 256.16 79.376 255.957 79.056C255.754 78.736 255.456 78.4747 255.061 78.272C254.666 78.0693 254.176 77.968 253.589 77.968C253.109 77.968 252.682 78.0587 252.309 78.24C251.936 78.4213 251.642 78.672 251.429 78.992C251.226 79.312 251.125 79.696 251.125 80.144C251.125 80.8053 251.354 81.3333 251.813 81.728C252.272 82.112 252.89 82.304 253.669 82.304Z" fill="#545454"/>
<path d="M28.6559 121V110.44L29.3439 111.192H26.1279V109.8H30.2399V121H28.6559ZM37.2658 121.128C36.3911 121.128 35.6071 120.904 34.9138 120.456C34.2311 120.008 33.6871 119.357 33.2818 118.504C32.8871 117.651 32.6898 116.616 32.6898 115.4C32.6898 114.184 32.8871 113.149 33.2818 112.296C33.6871 111.443 34.2311 110.792 34.9138 110.344C35.6071 109.896 36.3911 109.672 37.2658 109.672C38.1298 109.672 38.9084 109.896 39.6018 110.344C40.2951 110.792 40.8391 111.443 41.2338 112.296C41.6284 113.149 41.8258 114.184 41.8258 115.4C41.8258 116.616 41.6284 117.651 41.2338 118.504C40.8391 119.357 40.2951 120.008 39.6018 120.456C38.9084 120.904 38.1298 121.128 37.2658 121.128ZM37.2658 119.704C37.8524 119.704 38.3644 119.544 38.8018 119.224C39.2498 118.904 39.5964 118.424 39.8418 117.784C40.0978 117.144 40.2258 116.349 40.2258 115.4C40.2258 114.451 40.0978 113.656 39.8418 113.016C39.5964 112.376 39.2498 111.896 38.8018 111.576C38.3644 111.256 37.8524 111.096 37.2658 111.096C36.6791 111.096 36.1618 111.256 35.7138 111.576C35.2658 111.896 34.9138 112.376 34.6578 113.016C34.4125 113.656 34.2898 114.451 34.2898 115.4C34.2898 116.349 34.4125 117.144 34.6578 117.784C34.9138 118.424 35.2658 118.904 35.7138 119.224C36.1618 119.544 36.6791 119.704 37.2658 119.704Z" fill="#545454"/>
<path d="M65.6559 121V110.44L66.3439 111.192H63.1279V109.8H67.2399V121H65.6559ZM71.5778 121V110.44L72.2658 111.192H69.0498V109.8H73.1618V121H71.5778Z" fill="#545454"/>
<path d="M97.6559 121V110.44L98.3439 111.192H95.1279V109.8H99.2399V121H97.6559ZM101.514 121V119.912L106.074 115.512C106.479 115.128 106.778 114.792 106.97 114.504C107.172 114.205 107.306 113.933 107.37 113.688C107.444 113.432 107.482 113.187 107.482 112.952C107.482 112.376 107.279 111.923 106.874 111.592C106.468 111.261 105.876 111.096 105.098 111.096C104.5 111.096 103.962 111.197 103.482 111.4C103.002 111.592 102.586 111.896 102.234 112.312L101.146 111.368C101.572 110.824 102.143 110.408 102.858 110.12C103.583 109.821 104.378 109.672 105.242 109.672C106.02 109.672 106.698 109.8 107.274 110.056C107.85 110.301 108.292 110.659 108.602 111.128C108.922 111.597 109.082 112.152 109.082 112.792C109.082 113.155 109.034 113.512 108.938 113.864C108.842 114.216 108.66 114.589 108.394 114.984C108.127 115.379 107.743 115.821 107.242 116.312L103.178 120.232L102.794 119.608H109.562V121H101.514Z" fill="#545454"/>
<path d="M133.656 121V110.44L134.344 111.192H131.128V109.8H135.24V121H133.656ZM141.114 121.128C140.325 121.128 139.557 121.005 138.81 120.76C138.074 120.515 137.471 120.184 137.002 119.768L137.738 118.504C138.111 118.856 138.597 119.144 139.194 119.368C139.791 119.592 140.431 119.704 141.114 119.704C141.946 119.704 142.591 119.528 143.05 119.176C143.519 118.813 143.754 118.328 143.754 117.72C143.754 117.133 143.53 116.664 143.082 116.312C142.645 115.949 141.946 115.768 140.986 115.768H140.09V114.648L143.418 110.552L143.642 111.192H137.514V109.8H144.906V110.888L141.594 114.968L140.762 114.472H141.29C142.645 114.472 143.658 114.776 144.33 115.384C145.013 115.992 145.354 116.765 145.354 117.704C145.354 118.333 145.199 118.909 144.89 119.432C144.581 119.955 144.111 120.371 143.482 120.68C142.863 120.979 142.074 121.128 141.114 121.128Z" fill="#545454"/>
<path d="M169.656 121V110.44L170.344 111.192H167.128V109.8H171.24V121H169.656ZM173.53 118.248V117.128L179.258 109.8H180.986L175.306 117.128L174.49 116.872H183.434V118.248H173.53ZM179.754 121V118.248L179.802 116.872V114.44H181.306V121H179.754Z" fill="#545454"/>
<path d="M206.656 121V110.44L207.344 111.192H204.128V109.8H208.24V121H206.656ZM214.306 121.128C213.517 121.128 212.749 121.005 212.002 120.76C211.266 120.515 210.663 120.184 210.194 119.768L210.93 118.504C211.303 118.856 211.789 119.144 212.386 119.368C212.983 119.592 213.618 119.704 214.29 119.704C215.143 119.704 215.799 119.523 216.258 119.16C216.717 118.797 216.946 118.312 216.946 117.704C216.946 117.288 216.845 116.925 216.642 116.616C216.439 116.307 216.087 116.072 215.586 115.912C215.095 115.741 214.418 115.656 213.554 115.656H211.01L211.602 109.8H217.922V111.192H212.194L213.026 110.408L212.562 115.032L211.73 114.264H213.89C215.01 114.264 215.911 114.408 216.594 114.696C217.277 114.984 217.773 115.384 218.082 115.896C218.391 116.397 218.546 116.979 218.546 117.64C218.546 118.28 218.391 118.867 218.082 119.4C217.773 119.923 217.303 120.344 216.674 120.664C216.055 120.973 215.266 121.128 214.306 121.128Z" fill="#545454"/>
<path d="M248.859 121V110.44L249.547 111.192H246.331V109.8H250.443V121H248.859ZM257.597 121.128C256.605 121.128 255.757 120.909 255.053 120.472C254.349 120.035 253.81 119.405 253.437 118.584C253.074 117.752 252.893 116.739 252.893 115.544C252.893 114.275 253.117 113.203 253.565 112.328C254.013 111.453 254.637 110.792 255.437 110.344C256.237 109.896 257.154 109.672 258.189 109.672C258.722 109.672 259.229 109.725 259.709 109.832C260.2 109.939 260.621 110.104 260.973 110.328L260.365 111.576C260.077 111.373 259.746 111.235 259.373 111.16C259.01 111.085 258.626 111.048 258.221 111.048C257.08 111.048 256.173 111.405 255.501 112.12C254.829 112.824 254.493 113.875 254.493 115.272C254.493 115.496 254.504 115.763 254.525 116.072C254.546 116.381 254.6 116.685 254.685 116.984L254.141 116.44C254.301 115.949 254.552 115.539 254.893 115.208C255.245 114.867 255.661 114.616 256.141 114.456C256.632 114.285 257.16 114.2 257.725 114.2C258.472 114.2 259.133 114.339 259.709 114.616C260.285 114.893 260.738 115.288 261.069 115.8C261.4 116.301 261.565 116.899 261.565 117.592C261.565 118.307 261.389 118.931 261.037 119.464C260.685 119.997 260.21 120.408 259.613 120.696C259.016 120.984 258.344 121.128 257.597 121.128ZM257.533 119.832C258.024 119.832 258.45 119.741 258.813 119.56C259.186 119.379 259.48 119.128 259.693 118.808C259.906 118.477 260.013 118.093 260.013 117.656C260.013 116.995 259.784 116.472 259.325 116.088C258.866 115.693 258.242 115.496 257.453 115.496C256.941 115.496 256.493 115.592 256.109 115.784C255.725 115.976 255.421 116.237 255.197 116.568C254.984 116.888 254.877 117.256 254.877 117.672C254.877 118.056 254.978 118.413 255.181 118.744C255.384 119.064 255.682 119.325 256.077 119.528C256.472 119.731 256.957 119.832 257.533 119.832Z" fill="#545454"/>
<path d="M28.6559 154V143.44L29.3439 144.192H26.1279V142.8H30.2399V154H28.6559ZM34.6258 154L39.3778 143.472L39.7938 144.192H33.1378L33.9378 143.408V146.192H32.4018V142.8H40.8498V143.888L36.3218 154H34.6258Z" fill="#545454"/>
<path d="M62.6559 154V143.44L63.3439 144.192H60.1279V142.8H64.2399V154H62.6559ZM71.0578 154.128C70.1511 154.128 69.3671 153.995 68.7058 153.728C68.0444 153.461 67.5324 153.083 67.1698 152.592C66.8071 152.091 66.6258 151.504 66.6258 150.832C66.6258 150.171 66.7964 149.611 67.1378 149.152C67.4898 148.683 67.9964 148.331 68.6578 148.096C69.3191 147.851 70.1191 147.728 71.0578 147.728C71.9964 147.728 72.7964 147.851 73.4578 148.096C74.1298 148.331 74.6418 148.683 74.9938 149.152C75.3458 149.621 75.5218 150.181 75.5218 150.832C75.5218 151.504 75.3404 152.091 74.9778 152.592C74.6151 153.083 74.0978 153.461 73.4258 153.728C72.7538 153.995 71.9644 154.128 71.0578 154.128ZM71.0578 152.832C71.9538 152.832 72.6524 152.651 73.1538 152.288C73.6658 151.915 73.9218 151.413 73.9218 150.784C73.9218 150.165 73.6658 149.68 73.1538 149.328C72.6524 148.965 71.9538 148.784 71.0578 148.784C70.1724 148.784 69.4791 148.965 68.9778 149.328C68.4764 149.68 68.2258 150.165 68.2258 150.784C68.2258 151.413 68.4764 151.915 68.9778 152.288C69.4791 152.651 70.1724 152.832 71.0578 152.832ZM71.0578 147.568C71.8364 147.568 72.4444 147.408 72.8818 147.088C73.3298 146.768 73.5538 146.331 73.5538 145.776C73.5538 145.211 73.3244 144.768 72.8658 144.448C72.4071 144.128 71.8044 143.968 71.0578 143.968C70.3111 143.968 69.7138 144.128 69.2658 144.448C68.8284 144.768 68.6098 145.211 68.6098 145.776C68.6098 146.331 68.8231 146.768 69.2498 147.088C69.6871 147.408 70.2898 147.568 71.0578 147.568ZM71.0578 148.592C70.2044 148.592 69.4791 148.48 68.8818 148.256C68.2844 148.021 67.8258 147.691 67.5058 147.264C67.1858 146.827 67.0258 146.309 67.0258 145.712C67.0258 145.083 67.1911 144.544 67.5218 144.096C67.8631 143.637 68.3378 143.285 68.9458 143.04C69.5538 142.795 70.2578 142.672 71.0578 142.672C71.8684 142.672 72.5778 142.795 73.1858 143.04C73.7938 143.285 74.2684 143.637 74.6098 144.096C74.9511 144.544 75.1218 145.083 75.1218 145.712C75.1218 146.309 74.9618 146.827 74.6418 147.264C74.3218 147.691 73.8578 148.021 73.2498 148.256C72.6418 148.48 71.9111 148.592 71.0578 148.592Z" fill="#545454"/>
<path d="M97.6559 154V143.44L98.3439 144.192H95.1279V142.8H99.2399V154H97.6559ZM104.73 154.128C104.207 154.128 103.7 154.075 103.21 153.968C102.73 153.861 102.308 153.696 101.946 153.472L102.554 152.224C102.852 152.416 103.183 152.555 103.546 152.64C103.919 152.715 104.308 152.752 104.714 152.752C105.844 152.752 106.746 152.4 107.418 151.696C108.09 150.981 108.426 149.925 108.426 148.528C108.426 148.304 108.415 148.037 108.394 147.728C108.372 147.419 108.324 147.115 108.25 146.816L108.778 147.36C108.628 147.851 108.378 148.267 108.026 148.608C107.684 148.939 107.268 149.189 106.778 149.36C106.298 149.52 105.77 149.6 105.194 149.6C104.458 149.6 103.802 149.461 103.226 149.184C102.65 148.907 102.196 148.517 101.866 148.016C101.535 147.504 101.37 146.901 101.37 146.208C101.37 145.483 101.54 144.859 101.882 144.336C102.234 143.803 102.708 143.392 103.306 143.104C103.914 142.816 104.586 142.672 105.322 142.672C106.335 142.672 107.188 142.891 107.882 143.328C108.586 143.765 109.119 144.4 109.482 145.232C109.844 146.053 110.026 147.061 110.026 148.256C110.026 149.525 109.802 150.597 109.354 151.472C108.906 152.347 108.287 153.008 107.498 153.456C106.708 153.904 105.786 154.128 104.73 154.128ZM105.466 148.304C105.978 148.304 106.426 148.208 106.81 148.016C107.204 147.824 107.508 147.563 107.722 147.232C107.946 146.901 108.058 146.533 108.058 146.128C108.058 145.733 107.956 145.376 107.754 145.056C107.551 144.736 107.252 144.475 106.858 144.272C106.463 144.069 105.972 143.968 105.386 143.968C104.906 143.968 104.479 144.059 104.106 144.24C103.732 144.421 103.439 144.672 103.226 144.992C103.023 145.312 102.922 145.696 102.922 146.144C102.922 146.805 103.151 147.333 103.61 147.728C104.068 148.112 104.687 148.304 105.466 148.304Z" fill="#545454"/>
<path d="M129.592 154V152.912L134.152 148.512C134.557 148.128 134.856 147.792 135.048 147.504C135.251 147.205 135.384 146.933 135.448 146.688C135.523 146.432 135.56 146.187 135.56 145.952C135.56 145.376 135.357 144.923 134.952 144.592C134.547 144.261 133.955 144.096 133.176 144.096C132.579 144.096 132.04 144.197 131.56 144.4C131.08 144.592 130.664 144.896 130.312 145.312L129.224 144.368C129.651 143.824 130.221 143.408 130.936 143.12C131.661 142.821 132.456 142.672 133.32 142.672C134.099 142.672 134.776 142.8 135.352 143.056C135.928 143.301 136.371 143.659 136.68 144.128C137 144.597 137.16 145.152 137.16 145.792C137.16 146.155 137.112 146.512 137.016 146.864C136.92 147.216 136.739 147.589 136.472 147.984C136.205 148.379 135.821 148.821 135.32 149.312L131.256 153.232L130.872 152.608H137.64V154H129.592ZM143.516 154.128C142.641 154.128 141.857 153.904 141.164 153.456C140.481 153.008 139.937 152.357 139.532 151.504C139.137 150.651 138.94 149.616 138.94 148.4C138.94 147.184 139.137 146.149 139.532 145.296C139.937 144.443 140.481 143.792 141.164 143.344C141.857 142.896 142.641 142.672 143.516 142.672C144.38 142.672 145.159 142.896 145.852 143.344C146.545 143.792 147.089 144.443 147.484 145.296C147.879 146.149 148.076 147.184 148.076 148.4C148.076 149.616 147.879 150.651 147.484 151.504C147.089 152.357 146.545 153.008 145.852 153.456C145.159 153.904 144.38 154.128 143.516 154.128ZM143.516 152.704C144.103 152.704 144.615 152.544 145.052 152.224C145.5 151.904 145.847 151.424 146.092 150.784C146.348 150.144 146.476 149.349 146.476 148.4C146.476 147.451 146.348 146.656 146.092 146.016C145.847 145.376 145.5 144.896 145.052 144.576C144.615 144.256 144.103 144.096 143.516 144.096C142.929 144.096 142.412 144.256 141.964 144.576C141.516 144.896 141.164 145.376 140.908 146.016C140.663 146.656 140.54 147.451 140.54 148.4C140.54 149.349 140.663 150.144 140.908 150.784C141.164 151.424 141.516 151.904 141.964 152.224C142.412 152.544 142.929 152.704 143.516 152.704Z" fill="#545454"/>
<path d="M167.592 154V152.912L172.152 148.512C172.557 148.128 172.856 147.792 173.048 147.504C173.251 147.205 173.384 146.933 173.448 146.688C173.523 146.432 173.56 146.187 173.56 145.952C173.56 145.376 173.357 144.923 172.952 144.592C172.547 144.261 171.955 144.096 171.176 144.096C170.579 144.096 170.04 144.197 169.56 144.4C169.08 144.592 168.664 144.896 168.312 145.312L167.224 144.368C167.651 143.824 168.221 143.408 168.936 143.12C169.661 142.821 170.456 142.672 171.32 142.672C172.099 142.672 172.776 142.8 173.352 143.056C173.928 143.301 174.371 143.659 174.68 144.128C175 144.597 175.16 145.152 175.16 145.792C175.16 146.155 175.112 146.512 175.016 146.864C174.92 147.216 174.739 147.589 174.472 147.984C174.205 148.379 173.821 148.821 173.32 149.312L169.256 153.232L168.872 152.608H175.64V154H167.592ZM178.844 154V143.44L179.532 144.192H176.316V142.8H180.428V154H178.844Z" fill="#545454"/>
<path d="M203.217 154V152.912L207.777 148.512C208.182 148.128 208.481 147.792 208.673 147.504C208.876 147.205 209.009 146.933 209.073 146.688C209.148 146.432 209.185 146.187 209.185 145.952C209.185 145.376 208.982 144.923 208.577 144.592C208.172 144.261 207.58 144.096 206.801 144.096C206.204 144.096 205.665 144.197 205.185 144.4C204.705 144.592 204.289 144.896 203.937 145.312L202.849 144.368C203.276 143.824 203.846 143.408 204.561 143.12C205.286 142.821 206.081 142.672 206.945 142.672C207.724 142.672 208.401 142.8 208.977 143.056C209.553 143.301 209.996 143.659 210.305 144.128C210.625 144.597 210.785 145.152 210.785 145.792C210.785 146.155 210.737 146.512 210.641 146.864C210.545 147.216 210.364 147.589 210.097 147.984C209.83 148.379 209.446 148.821 208.945 149.312L204.881 153.232L204.497 152.608H211.265V154H203.217ZM212.405 154V152.912L216.965 148.512C217.37 148.128 217.669 147.792 217.861 147.504C218.063 147.205 218.197 146.933 218.261 146.688C218.335 146.432 218.373 146.187 218.373 145.952C218.373 145.376 218.17 144.923 217.765 144.592C217.359 144.261 216.767 144.096 215.989 144.096C215.391 144.096 214.853 144.197 214.373 144.4C213.893 144.592 213.477 144.896 213.125 145.312L212.037 144.368C212.463 143.824 213.034 143.408 213.749 143.12C214.474 142.821 215.269 142.672 216.133 142.672C216.911 142.672 217.589 142.8 218.165 143.056C218.741 143.301 219.183 143.659 219.493 144.128C219.813 144.597 219.973 145.152 219.973 145.792C219.973 146.155 219.925 146.512 219.829 146.864C219.733 147.216 219.551 147.589 219.285 147.984C219.018 148.379 218.634 148.821 218.133 149.312L214.069 153.232L213.685 152.608H220.453V154H212.405Z" fill="#545454"/>
<path d="M245.248 154V152.912L249.808 148.512C250.214 148.128 250.512 147.792 250.704 147.504C250.907 147.205 251.04 146.933 251.104 146.688C251.179 146.432 251.216 146.187 251.216 145.952C251.216 145.376 251.014 144.923 250.608 144.592C250.203 144.261 249.611 144.096 248.832 144.096C248.235 144.096 247.696 144.197 247.216 144.4C246.736 144.592 246.32 144.896 245.968 145.312L244.88 144.368C245.307 143.824 245.878 143.408 246.592 143.12C247.318 142.821 248.112 142.672 248.976 142.672C249.755 142.672 250.432 142.8 251.008 143.056C251.584 143.301 252.027 143.659 252.336 144.128C252.656 144.597 252.816 145.152 252.816 145.792C252.816 146.155 252.768 146.512 252.672 146.864C252.576 147.216 252.395 147.589 252.128 147.984C251.862 148.379 251.478 148.821 250.976 149.312L246.912 153.232L246.528 152.608H253.296V154H245.248ZM258.036 154.128C257.246 154.128 256.478 154.005 255.732 153.76C254.996 153.515 254.393 153.184 253.924 152.768L254.66 151.504C255.033 151.856 255.518 152.144 256.116 152.368C256.713 152.592 257.353 152.704 258.036 152.704C258.868 152.704 259.513 152.528 259.972 152.176C260.441 151.813 260.676 151.328 260.676 150.72C260.676 150.133 260.452 149.664 260.004 149.312C259.566 148.949 258.868 148.768 257.908 148.768H257.012V147.648L260.34 143.552L260.564 144.192H254.436V142.8H261.828V143.888L258.516 147.968L257.684 147.472H258.212C259.566 147.472 260.58 147.776 261.252 148.384C261.934 148.992 262.276 149.765 262.276 150.704C262.276 151.333 262.121 151.909 261.812 152.432C261.502 152.955 261.033 153.371 260.404 153.68C259.785 153.979 258.996 154.128 258.036 154.128Z" fill="#545454"/>
<path d="M26.5921 187V185.912L31.1521 181.512C31.5575 181.128 31.8561 180.792 32.0481 180.504C32.2508 180.205 32.3841 179.933 32.4481 179.688C32.5228 179.432 32.5601 179.187 32.5601 178.952C32.5601 178.376 32.3575 177.923 31.9521 177.592C31.5468 177.261 30.9548 177.096 30.1761 177.096C29.5788 177.096 29.0401 177.197 28.5601 177.4C28.0801 177.592 27.6641 177.896 27.3121 178.312L26.2241 177.368C26.6508 176.824 27.2215 176.408 27.9361 176.12C28.6615 175.821 29.4561 175.672 30.3201 175.672C31.0988 175.672 31.7761 175.8 32.3521 176.056C32.9281 176.301 33.3708 176.659 33.6801 177.128C34.0001 177.597 34.1601 178.152 34.1601 178.792C34.1601 179.155 34.1121 179.512 34.0161 179.864C33.9201 180.216 33.7388 180.589 33.4721 180.984C33.2055 181.379 32.8215 181.821 32.3201 182.312L28.2561 186.232L27.8721 185.608H34.6401V187H26.5921ZM35.4831 184.248V183.128L41.2111 175.8H42.9391L37.2591 183.128L36.4431 182.872H45.3871V184.248H35.4831ZM41.7071 187V184.248L41.7551 182.872V180.44H43.2591V187H41.7071Z" fill="#545454"/>
<path d="M62.5921 187V185.912L67.1521 181.512C67.5574 181.128 67.8561 180.792 68.0481 180.504C68.2508 180.205 68.3841 179.933 68.4481 179.688C68.5228 179.432 68.5601 179.187 68.5601 178.952C68.5601 178.376 68.3574 177.923 67.9521 177.592C67.5468 177.261 66.9548 177.096 66.1761 177.096C65.5788 177.096 65.0401 177.197 64.5601 177.4C64.0801 177.592 63.6641 177.896 63.3121 178.312L62.2241 177.368C62.6508 176.824 63.2214 176.408 63.9361 176.12C64.6614 175.821 65.4561 175.672 66.3201 175.672C67.0988 175.672 67.7761 175.8 68.3521 176.056C68.9281 176.301 69.3708 176.659 69.6801 177.128C70.0001 177.597 70.1601 178.152 70.1601 178.792C70.1601 179.155 70.1121 179.512 70.0161 179.864C69.9201 180.216 69.7388 180.589 69.4721 180.984C69.2054 181.379 68.8214 181.821 68.3201 182.312L64.2561 186.232L63.8721 185.608H70.6401V187H62.5921ZM75.5716 187.128C74.7823 187.128 74.0143 187.005 73.2676 186.76C72.5316 186.515 71.9289 186.184 71.4596 185.768L72.1956 184.504C72.5689 184.856 73.0543 185.144 73.6516 185.368C74.2489 185.592 74.8836 185.704 75.5556 185.704C76.4089 185.704 77.0649 185.523 77.5236 185.16C77.9823 184.797 78.2116 184.312 78.2116 183.704C78.2116 183.288 78.1103 182.925 77.9076 182.616C77.7049 182.307 77.3529 182.072 76.8516 181.912C76.3609 181.741 75.6836 181.656 74.8196 181.656H72.2756L72.8676 175.8H79.1876V177.192H73.4596L74.2916 176.408L73.8276 181.032L72.9956 180.264H75.1556C76.2756 180.264 77.1769 180.408 77.8596 180.696C78.5423 180.984 79.0383 181.384 79.3476 181.896C79.6569 182.397 79.8116 182.979 79.8116 183.64C79.8116 184.28 79.6569 184.867 79.3476 185.4C79.0383 185.923 78.5689 186.344 77.9396 186.664C77.3209 186.973 76.5316 187.128 75.5716 187.128Z" fill="#545454"/>
<path d="M97.5921 187V185.912L102.152 181.512C102.557 181.128 102.856 180.792 103.048 180.504C103.251 180.205 103.384 179.933 103.448 179.688C103.523 179.432 103.56 179.187 103.56 178.952C103.56 178.376 103.357 177.923 102.952 177.592C102.547 177.261 101.955 177.096 101.176 177.096C100.579 177.096 100.04 177.197 99.5601 177.4C99.0801 177.592 98.6641 177.896 98.3121 178.312L97.2241 177.368C97.6508 176.824 98.2214 176.408 98.9361 176.12C99.6614 175.821 100.456 175.672 101.32 175.672C102.099 175.672 102.776 175.8 103.352 176.056C103.928 176.301 104.371 176.659 104.68 177.128C105 177.597 105.16 178.152 105.16 178.792C105.16 179.155 105.112 179.512 105.016 179.864C104.92 180.216 104.739 180.589 104.472 180.984C104.205 181.379 103.821 181.821 103.32 182.312L99.2561 186.232L98.8721 185.608H105.64V187H97.5921ZM111.644 187.128C110.652 187.128 109.804 186.909 109.1 186.472C108.396 186.035 107.857 185.405 107.484 184.584C107.121 183.752 106.94 182.739 106.94 181.544C106.94 180.275 107.164 179.203 107.612 178.328C108.06 177.453 108.684 176.792 109.484 176.344C110.284 175.896 111.201 175.672 112.236 175.672C112.769 175.672 113.276 175.725 113.756 175.832C114.247 175.939 114.668 176.104 115.02 176.328L114.412 177.576C114.124 177.373 113.793 177.235 113.42 177.16C113.057 177.085 112.673 177.048 112.268 177.048C111.127 177.048 110.22 177.405 109.548 178.12C108.876 178.824 108.54 179.875 108.54 181.272C108.54 181.496 108.551 181.763 108.572 182.072C108.593 182.381 108.647 182.685 108.732 182.984L108.188 182.44C108.348 181.949 108.599 181.539 108.94 181.208C109.292 180.867 109.708 180.616 110.188 180.456C110.679 180.285 111.207 180.2 111.772 180.2C112.519 180.2 113.18 180.339 113.756 180.616C114.332 180.893 114.785 181.288 115.116 181.8C115.447 182.301 115.612 182.899 115.612 183.592C115.612 184.307 115.436 184.931 115.084 185.464C114.732 185.997 114.257 186.408 113.66 186.696C113.063 186.984 112.391 187.128 111.644 187.128ZM111.58 185.832C112.071 185.832 112.497 185.741 112.86 185.56C113.233 185.379 113.527 185.128 113.74 184.808C113.953 184.477 114.06 184.093 114.06 183.656C114.06 182.995 113.831 182.472 113.372 182.088C112.913 181.693 112.289 181.496 111.5 181.496C110.988 181.496 110.54 181.592 110.156 181.784C109.772 181.976 109.468 182.237 109.244 182.568C109.031 182.888 108.924 183.256 108.924 183.672C108.924 184.056 109.025 184.413 109.228 184.744C109.431 185.064 109.729 185.325 110.124 185.528C110.519 185.731 111.004 185.832 111.58 185.832Z" fill="#545454"/>
<path d="M133.592 187V185.912L138.152 181.512C138.557 181.128 138.856 180.792 139.048 180.504C139.251 180.205 139.384 179.933 139.448 179.688C139.523 179.432 139.56 179.187 139.56 178.952C139.56 178.376 139.357 177.923 138.952 177.592C138.547 177.261 137.955 177.096 137.176 177.096C136.579 177.096 136.04 177.197 135.56 177.4C135.08 177.592 134.664 177.896 134.312 178.312L133.224 177.368C133.651 176.824 134.221 176.408 134.936 176.12C135.661 175.821 136.456 175.672 137.32 175.672C138.099 175.672 138.776 175.8 139.352 176.056C139.928 176.301 140.371 176.659 140.68 177.128C141 177.597 141.16 178.152 141.16 178.792C141.16 179.155 141.112 179.512 141.016 179.864C140.92 180.216 140.739 180.589 140.472 180.984C140.205 181.379 139.821 181.821 139.32 182.312L135.256 186.232L134.872 185.608H141.64V187H133.592ZM144.876 187L149.628 176.472L150.044 177.192H143.388L144.188 176.408V179.192H142.652V175.8H151.1V176.888L146.572 187H144.876Z" fill="#545454"/>
<path d="M168.592 187V185.912L173.152 181.512C173.557 181.128 173.856 180.792 174.048 180.504C174.251 180.205 174.384 179.933 174.448 179.688C174.523 179.432 174.56 179.187 174.56 178.952C174.56 178.376 174.357 177.923 173.952 177.592C173.547 177.261 172.955 177.096 172.176 177.096C171.579 177.096 171.04 177.197 170.56 177.4C170.08 177.592 169.664 177.896 169.312 178.312L168.224 177.368C168.651 176.824 169.221 176.408 169.936 176.12C170.661 175.821 171.456 175.672 172.32 175.672C173.099 175.672 173.776 175.8 174.352 176.056C174.928 176.301 175.371 176.659 175.68 177.128C176 177.597 176.16 178.152 176.16 178.792C176.16 179.155 176.112 179.512 176.016 179.864C175.92 180.216 175.739 180.589 175.472 180.984C175.205 181.379 174.821 181.821 174.32 182.312L170.256 186.232L169.872 185.608H176.64V187H168.592ZM182.324 187.128C181.417 187.128 180.633 186.995 179.972 186.728C179.31 186.461 178.798 186.083 178.436 185.592C178.073 185.091 177.892 184.504 177.892 183.832C177.892 183.171 178.062 182.611 178.404 182.152C178.756 181.683 179.262 181.331 179.924 181.096C180.585 180.851 181.385 180.728 182.324 180.728C183.262 180.728 184.062 180.851 184.724 181.096C185.396 181.331 185.908 181.683 186.26 182.152C186.612 182.621 186.788 183.181 186.788 183.832C186.788 184.504 186.606 185.091 186.244 185.592C185.881 186.083 185.364 186.461 184.692 186.728C184.02 186.995 183.23 187.128 182.324 187.128ZM182.324 185.832C183.22 185.832 183.918 185.651 184.42 185.288C184.932 184.915 185.188 184.413 185.188 183.784C185.188 183.165 184.932 182.68 184.42 182.328C183.918 181.965 183.22 181.784 182.324 181.784C181.438 181.784 180.745 181.965 180.244 182.328C179.742 182.68 179.492 183.165 179.492 183.784C179.492 184.413 179.742 184.915 180.244 185.288C180.745 185.651 181.438 185.832 182.324 185.832ZM182.324 180.568C183.102 180.568 183.71 180.408 184.148 180.088C184.596 179.768 184.82 179.331 184.82 178.776C184.82 178.211 184.59 177.768 184.132 177.448C183.673 177.128 183.07 176.968 182.324 176.968C181.577 176.968 180.98 177.128 180.532 177.448C180.094 177.768 179.876 178.211 179.876 178.776C179.876 179.331 180.089 179.768 180.516 180.088C180.953 180.408 181.556 180.568 182.324 180.568ZM182.324 181.592C181.47 181.592 180.745 181.48 180.148 181.256C179.55 181.021 179.092 180.691 178.772 180.264C178.452 179.827 178.292 179.309 178.292 178.712C178.292 178.083 178.457 177.544 178.788 177.096C179.129 176.637 179.604 176.285 180.212 176.04C180.82 175.795 181.524 175.672 182.324 175.672C183.134 175.672 183.844 175.795 184.452 176.04C185.06 176.285 185.534 176.637 185.876 177.096C186.217 177.544 186.388 178.083 186.388 178.712C186.388 179.309 186.228 179.827 185.908 180.264C185.588 180.691 185.124 181.021 184.516 181.256C183.908 181.48 183.177 181.592 182.324 181.592Z" fill="#545454"/>
<path d="M206.53 187V185.912L211.09 181.512C211.495 181.128 211.794 180.792 211.986 180.504C212.188 180.205 212.322 179.933 212.386 179.688C212.46 179.432 212.498 179.187 212.498 178.952C212.498 178.376 212.295 177.923 211.89 177.592C211.484 177.261 210.892 177.096 210.114 177.096C209.516 177.096 208.978 177.197 208.498 177.4C208.018 177.592 207.602 177.896 207.25 178.312L206.162 177.368C206.588 176.824 207.159 176.408 207.874 176.12C208.599 175.821 209.394 175.672 210.258 175.672C211.036 175.672 211.714 175.8 212.29 176.056C212.866 176.301 213.308 176.659 213.618 177.128C213.938 177.597 214.098 178.152 214.098 178.792C214.098 179.155 214.05 179.512 213.954 179.864C213.858 180.216 213.676 180.589 213.41 180.984C213.143 181.379 212.759 181.821 212.258 182.312L208.194 186.232L207.81 185.608H214.578V187H206.53ZM218.933 187.128C218.41 187.128 217.904 187.075 217.413 186.968C216.933 186.861 216.512 186.696 216.149 186.472L216.757 185.224C217.056 185.416 217.386 185.555 217.749 185.64C218.122 185.715 218.512 185.752 218.917 185.752C220.048 185.752 220.949 185.4 221.621 184.696C222.293 183.981 222.629 182.925 222.629 181.528C222.629 181.304 222.618 181.037 222.597 180.728C222.576 180.419 222.528 180.115 222.453 179.816L222.981 180.36C222.832 180.851 222.581 181.267 222.229 181.608C221.888 181.939 221.472 182.189 220.981 182.36C220.501 182.52 219.973 182.6 219.397 182.6C218.661 182.6 218.005 182.461 217.429 182.184C216.853 181.907 216.4 181.517 216.069 181.016C215.738 180.504 215.573 179.901 215.573 179.208C215.573 178.483 215.744 177.859 216.085 177.336C216.437 176.803 216.912 176.392 217.509 176.104C218.117 175.816 218.789 175.672 219.525 175.672C220.538 175.672 221.392 175.891 222.085 176.328C222.789 176.765 223.322 177.4 223.685 178.232C224.048 179.053 224.229 180.061 224.229 181.256C224.229 182.525 224.005 183.597 223.557 184.472C223.109 185.347 222.49 186.008 221.701 186.456C220.912 186.904 219.989 187.128 218.933 187.128ZM219.669 181.304C220.181 181.304 220.629 181.208 221.013 181.016C221.408 180.824 221.712 180.563 221.925 180.232C222.149 179.901 222.261 179.533 222.261 179.128C222.261 178.733 222.16 178.376 221.957 178.056C221.754 177.736 221.456 177.475 221.061 177.272C220.666 177.069 220.176 176.968 219.589 176.968C219.109 176.968 218.682 177.059 218.309 177.24C217.936 177.421 217.642 177.672 217.429 177.992C217.226 178.312 217.125 178.696 217.125 179.144C217.125 179.805 217.354 180.333 217.813 180.728C218.272 181.112 218.89 181.304 219.669 181.304Z" fill="#545454"/>
<path d="M246.364 187.128C245.575 187.128 244.807 187.005 244.06 186.76C243.324 186.515 242.721 186.184 242.252 185.768L242.988 184.504C243.361 184.856 243.847 185.144 244.444 185.368C245.041 185.592 245.681 185.704 246.364 185.704C247.196 185.704 247.841 185.528 248.3 185.176C248.769 184.813 249.004 184.328 249.004 183.72C249.004 183.133 248.78 182.664 248.332 182.312C247.895 181.949 247.196 181.768 246.236 181.768H245.34V180.648L248.668 176.552L248.892 177.192H242.764V175.8H250.156V176.888L246.844 180.968L246.012 180.472H246.54C247.895 180.472 248.908 180.776 249.58 181.384C250.263 181.992 250.604 182.765 250.604 183.704C250.604 184.333 250.449 184.909 250.14 185.432C249.831 185.955 249.361 186.371 248.732 186.68C248.113 186.979 247.324 187.128 246.364 187.128ZM256.672 187.128C255.797 187.128 255.013 186.904 254.32 186.456C253.637 186.008 253.093 185.357 252.688 184.504C252.293 183.651 252.096 182.616 252.096 181.4C252.096 180.184 252.293 179.149 252.688 178.296C253.093 177.443 253.637 176.792 254.32 176.344C255.013 175.896 255.797 175.672 256.672 175.672C257.536 175.672 258.315 175.896 259.008 176.344C259.701 176.792 260.245 177.443 260.64 178.296C261.035 179.149 261.232 180.184 261.232 181.4C261.232 182.616 261.035 183.651 260.64 184.504C260.245 185.357 259.701 186.008 259.008 186.456C258.315 186.904 257.536 187.128 256.672 187.128ZM256.672 185.704C257.259 185.704 257.771 185.544 258.208 185.224C258.656 184.904 259.003 184.424 259.248 183.784C259.504 183.144 259.632 182.349 259.632 181.4C259.632 180.451 259.504 179.656 259.248 179.016C259.003 178.376 258.656 177.896 258.208 177.576C257.771 177.256 257.259 177.096 256.672 177.096C256.085 177.096 255.568 177.256 255.12 177.576C254.672 177.896 254.32 178.376 254.064 179.016C253.819 179.656 253.696 180.451 253.696 181.4C253.696 182.349 253.819 183.144 254.064 183.784C254.32 184.424 254.672 184.904 255.12 185.224C255.568 185.544 256.085 185.704 256.672 185.704Z" fill="#545454"/>
<path d="M30.1921 220.128C29.4027 220.128 28.6347 220.005 27.8881 219.76C27.1521 219.515 26.5494 219.184 26.0801 218.768L26.8161 217.504C27.1894 217.856 27.6747 218.144 28.2721 218.368C28.8694 218.592 29.5094 218.704 30.1921 218.704C31.0241 218.704 31.6694 218.528 32.1281 218.176C32.5974 217.813 32.8321 217.328 32.8321 216.72C32.8321 216.133 32.6081 215.664 32.1601 215.312C31.7227 214.949 31.0241 214.768 30.0641 214.768H29.1681V213.648L32.4961 209.552L32.7201 210.192H26.5921V208.8H33.9841V209.888L30.6721 213.968L29.8401 213.472H30.3681C31.7227 213.472 32.7361 213.776 33.4081 214.384C34.0907 214.992 34.4321 215.765 34.4321 216.704C34.4321 217.333 34.2774 217.909 33.9681 218.432C33.6587 218.955 33.1894 219.371 32.5601 219.68C31.9414 219.979 31.1521 220.128 30.1921 220.128ZM37.8124 220V209.44L38.5004 210.192H35.2843V208.8H39.3964V220H37.8124Z" fill="#545454"/>
</svg>
